<mxfile host="app.diagrams.net" agent="Mozilla/5.0 (Macintosh; Intel Mac OS X 10_15_7) AppleWebKit/537.36 (KHTML, like Gecko) Chrome/131.0.0.0 Safari/537.36" version="26.0.6">
  <diagram id="C5RBs43oDa-KdzZeNtuy" name="Page-1">
    <mxGraphModel dx="1306" dy="835" grid="1" gridSize="10" guides="1" tooltips="1" connect="1" arrows="1" fold="1" page="1" pageScale="1" pageWidth="827" pageHeight="1169" math="0" shadow="0">
      <root>
        <mxCell id="WIyWlLk6GJQsqaUBKTNV-0" />
        <mxCell id="WIyWlLk6GJQsqaUBKTNV-1" parent="WIyWlLk6GJQsqaUBKTNV-0" />
        <mxCell id="Sa9fdk2BlfCGro_Fxv4i-16" style="edgeStyle=orthogonalEdgeStyle;rounded=0;orthogonalLoop=1;jettySize=auto;html=1;exitX=0;exitY=0.75;exitDx=0;exitDy=0;entryX=1;entryY=0.5;entryDx=0;entryDy=0;" edge="1" parent="WIyWlLk6GJQsqaUBKTNV-1" source="Sa9fdk2BlfCGro_Fxv4i-0" target="Sa9fdk2BlfCGro_Fxv4i-13">
          <mxGeometry relative="1" as="geometry" />
        </mxCell>
        <mxCell id="Sa9fdk2BlfCGro_Fxv4i-17" value="采集" style="edgeLabel;html=1;align=center;verticalAlign=middle;resizable=0;points=[];" vertex="1" connectable="0" parent="Sa9fdk2BlfCGro_Fxv4i-16">
          <mxGeometry x="0.1667" y="3" relative="1" as="geometry">
            <mxPoint as="offset" />
          </mxGeometry>
        </mxCell>
        <mxCell id="Sa9fdk2BlfCGro_Fxv4i-0" value="刻字机" style="rounded=0;whiteSpace=wrap;html=1;" vertex="1" parent="WIyWlLk6GJQsqaUBKTNV-1">
          <mxGeometry x="640" y="150" width="60" height="40" as="geometry" />
        </mxCell>
        <mxCell id="Sa9fdk2BlfCGro_Fxv4i-11" value="MES" style="rounded=0;whiteSpace=wrap;html=1;" vertex="1" parent="WIyWlLk6GJQsqaUBKTNV-1">
          <mxGeometry x="360" y="350" width="120" height="60" as="geometry" />
        </mxCell>
        <mxCell id="Sa9fdk2BlfCGro_Fxv4i-20" value="" style="edgeStyle=orthogonalEdgeStyle;rounded=0;orthogonalLoop=1;jettySize=auto;html=1;" edge="1" parent="WIyWlLk6GJQsqaUBKTNV-1" source="Sa9fdk2BlfCGro_Fxv4i-12" target="Sa9fdk2BlfCGro_Fxv4i-11">
          <mxGeometry relative="1" as="geometry" />
        </mxCell>
        <mxCell id="Sa9fdk2BlfCGro_Fxv4i-21" value="设备配置参数" style="edgeLabel;html=1;align=center;verticalAlign=middle;resizable=0;points=[];" vertex="1" connectable="0" parent="Sa9fdk2BlfCGro_Fxv4i-20">
          <mxGeometry x="0.2" y="-2" relative="1" as="geometry">
            <mxPoint x="20" y="2" as="offset" />
          </mxGeometry>
        </mxCell>
        <mxCell id="Sa9fdk2BlfCGro_Fxv4i-12" value="设备管理系统" style="rounded=0;whiteSpace=wrap;html=1;" vertex="1" parent="WIyWlLk6GJQsqaUBKTNV-1">
          <mxGeometry x="590" y="350" width="120" height="60" as="geometry" />
        </mxCell>
        <mxCell id="Sa9fdk2BlfCGro_Fxv4i-18" value="" style="edgeStyle=orthogonalEdgeStyle;rounded=0;orthogonalLoop=1;jettySize=auto;html=1;" edge="1" parent="WIyWlLk6GJQsqaUBKTNV-1" source="Sa9fdk2BlfCGro_Fxv4i-13" target="Sa9fdk2BlfCGro_Fxv4i-11">
          <mxGeometry relative="1" as="geometry" />
        </mxCell>
        <mxCell id="Sa9fdk2BlfCGro_Fxv4i-19" value="MQ" style="edgeLabel;html=1;align=center;verticalAlign=middle;resizable=0;points=[];" vertex="1" connectable="0" parent="Sa9fdk2BlfCGro_Fxv4i-18">
          <mxGeometry x="0.0667" relative="1" as="geometry">
            <mxPoint as="offset" />
          </mxGeometry>
        </mxCell>
        <mxCell id="Sa9fdk2BlfCGro_Fxv4i-13" value="数采系统" style="rounded=0;whiteSpace=wrap;html=1;" vertex="1" parent="WIyWlLk6GJQsqaUBKTNV-1">
          <mxGeometry x="360" y="230" width="120" height="60" as="geometry" />
        </mxCell>
      </root>
    </mxGraphModel>
  </diagram>
</mxfile>
